<svg width="16" height="20" viewBox="0 0 16 20" fill="none" xmlns="http://www.w3.org/2000/svg">
<path d="M2.23439 18.625C1.94659 18.6245 1.66388 18.549 1.41408 18.4061C0.85158 18.0874 0.501892 17.4686 0.501892 16.7969V3.20315C0.501892 2.52955 0.85158 1.91268 1.41408 1.59393C1.66983 1.44694 1.96037 1.37136 2.25532 1.37507C2.55028 1.37878 2.83883 1.46165 3.0908 1.61502L14.7088 8.5694C14.9509 8.72122 15.1505 8.93205 15.2889 9.18212C15.4272 9.43218 15.4998 9.71329 15.4998 9.99908C15.4998 10.2849 15.4272 10.566 15.2889 10.8161C15.1505 11.0661 14.9509 11.2769 14.7088 11.4288L3.08892 18.385C2.83106 18.5409 2.53571 18.6239 2.23439 18.625V18.625Z" fill="white" stroke="black"/>
</svg>
